<svg width="70" height="70" viewBox="0 0 70 70" fill="none" xmlns="http://www.w3.org/2000/svg">
<circle cx="35" cy="35" r="35" fill="url(#paint0_linear_184_21)"/>
<path d="M33.3837 13.5293C32.8564 13.6963 32.5575 13.8896 31.1513 14.9443C29.3144 16.3418 29.1122 16.4033 26.5458 16.5176C24.6913 16.6055 24.0673 16.79 23.2411 17.5195C22.6171 18.0732 22.3359 18.7061 21.8876 20.5781C21.6679 21.4922 21.4306 22.3975 21.3515 22.5908C21.1581 23.1094 20.8066 23.5049 19.4267 24.8057C18.0029 26.1416 17.6777 26.6074 17.4843 27.583C17.2646 28.6641 17.3876 29.1738 18.328 31.0107C19.1366 32.6016 19.3827 33.2432 19.3827 33.832C19.3827 34.0342 19.2948 34.957 19.1894 35.8799C19.0224 37.3037 19.0136 37.6641 19.0927 38.1562C19.2333 38.9561 19.5849 39.6152 20.1825 40.1602C20.5956 40.5469 20.912 40.7227 22.0722 41.2236C24.6562 42.3223 24.665 42.3311 26.0009 44.3438C26.5282 45.1436 27.0995 45.9434 27.2753 46.1279C27.4599 46.3125 27.8993 46.6113 28.2509 46.7871C28.8749 47.0947 28.954 47.1123 29.745 47.1123C30.5185 47.1123 30.7206 47.0684 32.2411 46.6025C34.4384 45.9346 34.5614 45.9346 36.7587 46.6025C38.2792 47.0684 38.4814 47.1123 39.2548 47.1123C40.0458 47.1123 40.1249 47.0947 40.7489 46.7871C41.1005 46.6113 41.54 46.3125 41.7245 46.1279C41.9003 45.9434 42.4716 45.1436 42.9989 44.3438C44.3173 42.3574 44.4052 42.2871 46.7167 41.3115C48.2021 40.6963 48.5097 40.5117 49.0107 39.9756C49.5028 39.4482 49.7841 38.8857 49.9071 38.1475C49.9862 37.6641 49.9687 37.2949 49.8105 35.8799C49.705 34.957 49.6171 34.0342 49.6171 33.832C49.6171 33.2432 49.8632 32.6016 50.6718 31.0195C51.6034 29.1914 51.7353 28.6641 51.5155 27.583C51.3222 26.6074 50.997 26.1416 49.5732 24.8057C48.1933 23.5049 47.8417 23.1094 47.6484 22.5908C47.5693 22.3975 47.332 21.4922 47.1122 20.5781C46.664 18.7061 46.3827 18.0732 45.7587 17.5195C44.8886 16.7637 44.3612 16.6143 42.0058 16.4824C39.7382 16.3594 39.7294 16.3594 37.6728 14.8213C36.9169 14.2588 36.1171 13.7139 35.9062 13.626C35.3876 13.415 33.9111 13.3535 33.3837 13.5293ZM36.873 19.1104C39.1054 19.6201 40.9775 20.6572 42.5859 22.2744C44.1943 23.9004 45.1962 25.7637 45.6708 28.0225C45.9257 29.1826 45.9433 31.2832 45.7148 32.3467C44.8534 36.3984 42.1904 39.5449 38.3935 40.9688C35.8798 41.918 32.8739 41.874 30.3427 40.8633C26.6777 39.3955 24.1288 36.3193 23.2851 32.3467C23.0566 31.2832 23.0741 29.1826 23.329 28.0225C23.6542 26.4492 24.1728 25.2363 25.0868 23.8652C25.6845 22.96 27.0116 21.5977 27.9081 20.9736C29.2704 20.0156 31.1337 19.251 32.7421 18.9961C33.8407 18.8203 35.8359 18.873 36.873 19.1104Z" fill="white"/>
<path d="M29.7363 24.8848C29.0068 25.0605 28.5498 25.3154 27.9961 25.8779C27.2314 26.6426 26.8535 27.6182 26.8535 28.8135C26.8535 30.5713 28.0664 32.584 30.3252 34.5967C31.6172 35.748 34.1309 37.4883 34.5 37.4883C34.7373 37.4883 35.8623 36.7852 37.0752 35.8799C40.415 33.3838 42.1465 30.9668 42.1465 28.8135C42.1465 27.6709 41.7949 26.7217 41.0918 25.9482C40.5908 25.3945 40.0107 25.0605 39.2373 24.876C38.5342 24.7178 38.1387 24.709 37.374 24.876C36.5566 25.043 35.8975 25.3594 35.1416 25.9395C34.7373 26.2559 34.4648 26.4053 34.3945 26.3613C34.333 26.3174 34.0605 26.1152 33.7969 25.8955C33.1904 25.4033 32.4258 25.043 31.6348 24.876C30.8965 24.7178 30.3955 24.7178 29.7363 24.8848Z" fill="white"/>
<path d="M23.2585 43.3682C23.2058 43.4648 22.3093 45.3721 21.2722 47.6133C19.6462 51.0938 19.3825 51.709 19.4616 51.876C19.5144 51.9902 19.6023 52.0781 19.6638 52.0781C19.7253 52.0781 20.7888 51.9023 22.0193 51.6914C23.2497 51.4805 24.3484 51.2871 24.4626 51.2695C24.6384 51.2432 24.8054 51.4893 25.9128 53.3965C27.0818 55.4092 27.1784 55.5498 27.4333 55.5762C27.5912 55.592 27.7419 55.5062 27.8089 55.3624L29.3845 51.9814C30.0634 50.5275 30.6444 49.2649 30.9027 48.6801C31.0033 48.4525 30.9192 48.3316 30.6765 48.3867C29.3054 48.7031 27.5036 48.1494 26.4138 47.0684C26.1501 46.8047 25.4646 45.8906 24.9109 45.0469C23.821 43.4121 23.4431 43.0166 23.2585 43.3682Z" fill="white"/>
<path d="M45.346 43.3857C45.1702 43.4912 44.6868 44.1328 44.0716 45.0732C43.5267 45.8994 42.8587 46.8047 42.5862 47.0684C41.4964 48.1494 39.6946 48.7031 38.3235 48.3867C38.0857 48.3327 38 48.4566 38.0988 48.6797C38.3579 49.2651 38.9379 50.5302 39.6155 51.9814L41.1911 55.3624C41.2581 55.5062 41.4088 55.592 41.5667 55.5762C41.8216 55.5498 41.9183 55.4092 43.0872 53.3965C44.1946 51.4893 44.3616 51.2432 44.5374 51.2695C44.6517 51.2871 45.7415 51.4717 46.972 51.6914C48.2025 51.9023 49.2659 52.0781 49.3275 52.0781C49.389 52.0781 49.4857 51.9902 49.5384 51.876C49.6175 51.709 49.345 51.0762 47.6839 47.5078C46.6116 45.2139 45.7151 43.3066 45.68 43.2715C45.6448 43.2363 45.4954 43.2891 45.346 43.3857Z" fill="white"/>
<defs>
<linearGradient id="paint0_linear_184_21" x1="81.6981" y1="-1.62355e-06" x2="-22.3169" y2="64.5356" gradientUnits="userSpaceOnUse">
<stop stop-color="#9E0606"/>
<stop offset="1" stop-color="#D51717"/>
</linearGradient>
</defs>
</svg>
