<svg width="70" height="70" viewBox="0 0 70 70" fill="none" xmlns="http://www.w3.org/2000/svg">
<circle cx="35" cy="35" r="35" fill="url(#paint0_linear_184_39)"/>
<path d="M34.0978 14.1384C33.9507 14.2161 33.4016 14.9057 32.8721 15.6827L32.8287 15.7458C32.229 16.6159 31.3473 17.2523 30.3326 17.5476C29.4698 17.7904 28.6657 18.0624 28.5383 18.1401C28.0382 18.4509 27.8029 19.189 28.0186 19.7427C28.0676 19.8689 28.5579 20.5294 29.0972 21.2287C29.7388 22.0468 30.0875 23.0564 30.0875 24.0961V24.3465C30.0875 26.0851 30.0973 26.2211 30.2934 26.4639C30.5483 26.7941 30.9798 27.0078 31.3523 27.0078C31.519 27.0078 32.3329 26.765 33.1663 26.4736C33.9997 26.1822 34.7351 25.9394 34.7939 25.9394C34.8528 25.9394 35.5882 26.1822 36.4216 26.4736C37.255 26.765 38.0689 27.0078 38.2355 27.0078C38.6081 27.0078 39.0396 26.7941 39.2945 26.4639C39.4906 26.2211 39.5004 26.0851 39.5004 24.3465V24.0961C39.5004 23.0564 39.8491 22.0468 40.4907 21.2287C41.0398 20.5294 41.5203 19.8689 41.5693 19.7427C41.785 19.1793 41.5497 18.4509 41.0496 18.1401C40.9221 18.0624 40.1181 17.7904 39.2553 17.5379C38.2411 17.2491 37.3592 16.6162 36.7607 15.748L36.7157 15.6827C36.1274 14.828 35.6372 14.2161 35.4705 14.1384C35.1273 13.9539 34.4312 13.9539 34.0978 14.1384Z" fill="white"/>
<path d="M20.6783 18.7636C20.5729 18.8075 20.1598 19.3349 19.7555 19.9325C19.2778 20.632 18.5715 21.1476 17.7604 21.3915C16.3805 21.8046 16.1168 21.9716 16.0201 22.4814C15.941 22.912 16.0641 23.1405 16.9518 24.2831C17.4173 24.8793 17.6583 25.6202 17.6324 26.3762L17.6285 26.4892C17.5846 27.9306 17.6461 28.2294 18.0856 28.4491C18.4899 28.6601 18.7447 28.6249 20.0367 28.1767L20.068 28.1658C20.8155 27.9055 21.6296 27.9094 22.3746 28.1767C23.7809 28.6864 24.0709 28.6952 24.4752 28.2909C24.6666 28.0996 24.774 27.8401 24.774 27.5695V26.5771V26.4664C24.774 25.6203 25.052 24.7976 25.5651 24.1249C26.3033 23.1581 26.3561 23.0614 26.3561 22.6747C26.3561 21.998 26.11 21.8134 24.651 21.3915C23.9742 21.1894 23.3942 21.0048 23.3678 20.9696C23.3326 20.9257 22.9987 20.4511 22.6295 19.9149C22.2604 19.37 21.8649 18.8691 21.7594 18.7899C21.5485 18.6405 20.9596 18.623 20.6783 18.7636Z" fill="white"/>
<path d="M47.8281 18.7899C47.7227 18.8603 47.3359 19.37 46.958 19.9149C46.5889 20.4511 46.2549 20.9257 46.2285 20.9608C46.1934 21.0048 45.6133 21.1894 44.9453 21.3915C43.4775 21.8222 43.2314 22.0067 43.2314 22.6747C43.2314 23.0614 43.2842 23.1581 44.0225 24.1249C44.5354 24.7917 44.8135 25.6093 44.8135 26.4506V26.5771V27.5695C44.8135 27.8401 44.921 28.0996 45.1123 28.2909C45.5166 28.6952 45.8066 28.6864 47.2129 28.1767C47.9579 27.9094 48.772 27.9055 49.5195 28.1658L49.5508 28.1767C50.8428 28.6249 51.0977 28.6601 51.502 28.4491C51.9414 28.2294 52.0029 27.9306 51.959 26.4892L51.9551 26.3762C51.9292 25.6202 52.1702 24.8793 52.6357 24.2831C53.5146 23.1581 53.6465 22.912 53.5674 22.4989C53.4707 21.9716 53.1982 21.7958 51.8271 21.3915C51.016 21.1476 50.3097 20.632 49.832 19.9325C49.4277 19.3349 49.0059 18.8075 48.8828 18.7548C48.584 18.6142 48.0479 18.6317 47.8281 18.7899Z" fill="white"/>
<path d="M33.5457 30.9276C31.7263 31.3671 30.1707 32.9403 29.74 34.7684C29.573 35.4628 29.573 36.4823 29.74 37.1766C30.0828 38.6444 31.1463 39.9628 32.5086 40.622C32.9129 40.8241 33.326 40.9823 33.4226 40.9823C33.783 40.9823 33.4842 41.0702 32.8074 41.1669C29.907 41.5624 27.5691 43.5663 26.6111 46.4755C26.4265 47.0468 26.409 47.2665 26.3738 49.5516C26.3474 51.8983 26.3474 52.039 26.532 52.5136C26.7605 53.12 27.2879 53.6913 27.8943 53.9901C28.1834 54.1347 28.5019 54.2106 28.8251 54.2119L34.6795 54.2362C40.9109 54.2538 41.0252 54.2538 41.5086 54.078C42.0974 53.8495 42.6775 53.3134 42.9676 52.7157C43.1873 52.2763 43.1873 52.2587 43.1873 49.7274C43.1873 47.3016 43.1785 47.1434 42.9851 46.5194C42.2644 44.2255 40.6121 42.4237 38.4939 41.6063C37.8435 41.3602 37.3162 41.2372 36.4197 41.1054L36.3473 41.0967C36.2606 41.0863 36.2488 40.9653 36.3318 40.9384C38.0105 40.4374 39.4431 38.8993 39.8474 37.1854C40.1199 36.0253 39.9705 34.7333 39.4344 33.6259C39.0388 32.8085 37.9578 31.7274 37.1404 31.3319C36.0418 30.8046 34.6795 30.6464 33.5457 30.9276Z" fill="white"/>
<path d="M22.208 31.9209C20.9336 32.334 19.8438 33.4502 19.4658 34.7334C19.2812 35.3574 19.2812 36.5879 19.4658 37.2119C19.835 38.4951 20.9424 39.6289 22.1904 40.0156C22.2893 40.0451 22.2726 40.19 22.1695 40.1961L21.9531 40.209C19.7119 40.3584 17.5674 41.8701 16.6094 43.9883C16.0996 45.1045 16.0293 45.5176 16.0293 47.5303V48.806C16.0293 49.1808 16.1166 49.5505 16.2842 49.8857C16.5742 50.4482 17.0049 50.8877 17.585 51.1953C17.9541 51.3975 18.0156 51.3975 21.2412 51.4238L22.8585 51.4369C23.7688 51.4442 24.5107 50.7083 24.5107 49.7979C24.5107 47.2842 24.7568 46.0098 25.5566 44.4189C26.0137 43.5225 26.8398 42.4238 27.5518 41.791C27.8594 41.5186 28.1143 41.2637 28.1143 41.2373C28.1143 41.2021 27.8242 41.0352 27.4727 40.8594C26.6816 40.4727 25.627 40.1914 24.915 40.1826H24.9043C24.8117 40.1826 24.7916 40.0523 24.8799 40.0244C26.1543 39.6113 27.2441 38.4951 27.6221 37.2119C27.8066 36.5879 27.8066 35.3574 27.6221 34.7334C27.2441 33.4326 26.1455 32.3252 24.8535 31.9209C24.1416 31.7012 22.9023 31.7012 22.208 31.9209Z" fill="white"/>
<path d="M44.708 31.9209C43.4336 32.334 42.3437 33.4502 41.9658 34.7334C41.7812 35.3574 41.7812 36.5879 41.9658 37.2119C42.3437 38.4951 43.4336 39.6113 44.708 40.0244C44.7963 40.0523 44.7762 40.1826 44.6836 40.1826H44.6729C43.9609 40.1914 42.9062 40.4727 42.1152 40.8594C41.7637 41.0352 41.4736 41.2021 41.4736 41.2373C41.4736 41.2637 41.7285 41.5186 42.0361 41.791C42.748 42.4238 43.5742 43.5225 44.0312 44.4189C44.8311 46.0098 45.0771 47.2842 45.0771 49.7891C45.0771 50.7016 45.8169 51.4414 46.7295 51.4414H48.1797C49.9287 51.4414 51.4053 51.4062 51.5811 51.3535C52.4512 51.1162 53.2246 50.2988 53.4795 49.3584C53.6729 48.6465 53.6113 45.8867 53.3828 45.0693C52.6182 42.3535 50.2891 40.376 47.6348 40.209L47.4183 40.1961C47.3153 40.19 47.2986 40.0451 47.3975 40.0156C48.0215 39.8135 48.6455 39.418 49.1377 38.8906C49.9375 38.0381 50.2627 37.1855 50.2627 35.9727C50.2627 34.7598 49.9375 33.9072 49.1377 33.0547C48.6367 32.5186 48.0215 32.1318 47.3535 31.9209C46.6416 31.7012 45.4023 31.7012 44.708 31.9209Z" fill="white"/>
<defs>
<linearGradient id="paint0_linear_184_39" x1="81.6981" y1="-1.62355e-06" x2="-22.3169" y2="64.5356" gradientUnits="userSpaceOnUse">
<stop stop-color="#9E0606"/>
<stop offset="1" stop-color="#D51717"/>
</linearGradient>
</defs>
</svg>
