<svg width="70" height="70" viewBox="0 0 70 70" fill="none" xmlns="http://www.w3.org/2000/svg">
<circle cx="35" cy="35" r="35" fill="url(#paint0_linear_184_29)"/>
<path d="M39.3685 16.5526C36.9515 17.8974 36.3714 18.2577 36.3099 18.4423C36.1605 18.8642 36.3451 19.0663 37.2152 19.4354L38.0062 19.7694L37.7601 20.2001C36.9252 21.6503 34.9564 23.8036 33.0931 25.2978C29.9906 27.7938 25.6927 30.1229 20.7884 31.9599C20.2347 32.162 19.7425 32.3729 19.6898 32.4169C19.6371 32.4696 20.0765 32.4784 20.8763 32.4433C27.4593 32.1356 32.8119 30.1845 37.4877 26.3788C38.7972 25.3153 40.3793 23.6981 41.9086 21.8524L42.1459 21.5624L43.1214 21.9755C43.9476 22.3271 44.1322 22.371 44.308 22.2919C44.7826 22.081 44.7738 22.0194 43.8685 18.495C42.9984 15.1112 42.9193 14.9003 42.5062 14.9003C42.4183 14.9003 41.0121 15.6474 39.3685 16.5526Z" fill="white"/>
<path d="M13.2566 16.4824C12.6589 16.8428 12.7029 15.2871 12.7029 35.1768C12.7029 52.4473 12.7117 53.1943 12.8611 53.4756C12.949 53.6426 13.1599 53.8535 13.3269 53.9414C13.6081 54.0908 14.4519 54.0996 34.4997 54.0996C54.5476 54.0996 55.3913 54.0908 55.6726 53.9414C56.0242 53.7568 56.2966 53.2998 56.2966 52.9131C56.2966 52.5264 56.0242 52.0693 55.6726 51.8848C55.3913 51.7354 54.574 51.7266 35.2292 51.7266H15.0759L15.0583 34.4297C15.032 19.6904 15.0144 17.1064 14.9089 16.8955C14.6277 16.3506 13.8103 16.1396 13.2566 16.4824Z" fill="white"/>
<path d="M50.0647 20.6397C49.9505 20.6924 48.9134 21.9404 47.762 23.4082C45.4856 26.3086 45.4241 26.4229 45.8636 26.8359C46.0481 27.0117 46.1624 27.0293 46.9622 27.0293H47.8587V37.6113C47.8587 47.5606 47.8675 48.2022 48.0169 48.3779C48.1663 48.5625 48.2015 48.5625 50.7591 48.5449L53.3431 48.5186L53.4573 48.2988C53.5452 48.1231 53.5716 45.8643 53.5716 37.5498V27.0293H54.4505C55.2766 27.0293 55.3557 27.0117 55.5491 26.8096C55.7864 26.5811 55.8216 26.335 55.6722 26.0449C55.4612 25.6406 51.6116 20.8242 51.3919 20.6836C51.1194 20.5078 50.3987 20.4815 50.0647 20.6397Z" fill="white"/>
<path d="M38.165 31.2305C38.0244 31.3799 38.0156 32.1094 38.0156 39.8701C38.0156 46.3477 38.042 48.3779 38.1211 48.457C38.2002 48.5361 38.9121 48.5625 40.7842 48.5625C43.1572 48.5625 43.3594 48.5537 43.4912 48.4043C43.6318 48.2549 43.6406 47.5342 43.6406 39.835C43.6406 31.5381 43.6406 31.4238 43.4648 31.248C43.2979 31.0811 43.1748 31.0723 40.8018 31.0723C38.499 31.0723 38.2969 31.0811 38.165 31.2305Z" fill="white"/>
<path d="M28.2598 35.3789C28.084 35.5547 28.084 35.6689 28.084 41.9092C28.084 47.9648 28.0928 48.2812 28.2422 48.4131C28.3828 48.5449 28.708 48.5625 30.9492 48.5625C32.8125 48.5625 33.5244 48.5361 33.6035 48.457C33.6826 48.3779 33.709 46.8047 33.709 41.9268C33.709 35.8096 33.7002 35.4844 33.5508 35.3525C33.4102 35.2207 33.0938 35.2031 30.9141 35.2031C28.5498 35.2031 28.4268 35.2119 28.2598 35.3789Z" fill="white"/>
<path d="M18.3633 39.457C18.2051 39.5801 18.1963 39.7471 18.17 43.8691C18.1524 47.6133 18.1612 48.1758 18.2842 48.3516L18.4161 48.5625H21.0088C23.5752 48.5625 23.5928 48.5625 23.7247 48.3691C23.8477 48.1934 23.8653 47.6309 23.8653 43.9307C23.8653 39.7998 23.8565 39.6768 23.6895 39.5098C23.5225 39.3428 23.3995 39.334 21.0264 39.334C19.0137 39.334 18.504 39.3604 18.3633 39.457Z" fill="white"/>
<defs>
<linearGradient id="paint0_linear_184_29" x1="81.6981" y1="-1.62355e-06" x2="-22.3169" y2="64.5356" gradientUnits="userSpaceOnUse">
<stop stop-color="#9E0606"/>
<stop offset="1" stop-color="#D51717"/>
</linearGradient>
</defs>
</svg>
