<svg width="70" height="70" viewBox="0 0 70 70" fill="none" xmlns="http://www.w3.org/2000/svg">
<circle cx="35" cy="35" r="35" fill="url(#paint0_linear_184_49)"/>
<g clip-path="url(#clip0_184_49)">
<path d="M49.5892 14.9182L48.9258 15.5836C47.4629 17.0508 46.52 18.9561 46.2405 21.009C45.9931 22.7588 47.2405 24.0075 48.9915 23.7687C51.0449 23.4835 52.9497 22.5376 54.4178 21.0739L55.0823 20.4113C55.847 19.6467 56.5454 18.9382 57.0642 18.4032C57.6829 17.7651 57.5732 17.2193 56.7426 16.903C56.5165 16.8169 56.2703 16.7252 56.014 16.632C54.7884 16.1752 53.8204 15.2051 53.3685 13.9777C52.9817 12.923 52.6214 12.0353 52.5862 12.0266C52.5423 12.009 51.1976 13.3185 49.5892 14.9182Z" fill="white"/>
<path d="M32.0286 15.3047C26.72 15.8584 22.22 18.0293 18.7131 21.7383C15.6018 25.0166 13.721 28.9893 13.1233 33.5332C12.9299 35.0273 13.0003 38.3232 13.2551 39.7031C13.6682 41.9443 14.1604 43.4209 15.1536 45.4424C16.2346 47.6309 17.2805 49.0723 19.0999 50.9004C20.8137 52.6055 22.3255 53.7217 24.303 54.7324C27.3616 56.2969 30.3235 57 33.8919 57C37.2053 57 40.1672 56.332 43.0149 54.9346C45.1946 53.8711 46.8294 52.7021 48.6047 50.9355C51.8391 47.71 53.8255 43.79 54.5462 39.2461C54.7659 37.8135 54.7659 34.4121 54.5462 33.0498C54.1858 30.8613 53.5881 28.9453 52.6829 27.0469C52.1731 25.9834 52.1028 25.8867 51.9182 25.9219C51.804 25.9482 50.6262 26.1152 49.2991 26.291C47.9719 26.4668 46.8645 26.625 46.8469 26.6426C46.8381 26.6514 47.0227 26.9766 47.2776 27.3545C47.8753 28.2598 48.7717 30.1143 49.1145 31.1602C50.6262 35.7832 49.9583 40.7754 47.2952 44.8711C45.0979 48.2549 41.635 50.7246 37.7151 51.7178C35.9485 52.166 33.4788 52.2891 31.6331 52.0342C25.2434 51.1201 19.9524 46.4004 18.3352 40.1689C17.6848 37.6641 17.6672 34.7197 18.2825 32.2852C19.5217 27.3721 22.9671 23.3555 27.6692 21.3428C31.1585 19.8574 35.1751 19.6904 38.8401 20.8857C39.886 21.2285 41.7405 22.125 42.6458 22.7227C43.0237 22.9775 43.3489 23.1621 43.3577 23.1533C43.3753 23.1357 43.5335 22.0283 43.718 20.7012C43.8938 19.374 44.0608 18.1963 44.0872 18.082C44.1311 17.9062 44.0169 17.8359 42.9622 17.3262C41.1077 16.4297 39.3059 15.8584 37.2141 15.5068C36.1946 15.3311 32.969 15.208 32.0286 15.3047Z" fill="white"/>
<path d="M32.1602 22.7314C27.1328 23.3467 22.791 26.8711 21.1035 31.6963C20.5498 33.2607 20.4268 34.0869 20.4268 36.126C20.4268 37.5586 20.4619 38.1387 20.585 38.7187C21.4375 42.8232 24.083 46.3213 27.7305 48.1758C28.7324 48.6768 30.0684 49.1514 31.2812 49.4062C31.8701 49.5381 32.415 49.5732 33.874 49.5732C35.4824 49.5732 35.834 49.5469 36.6338 49.3711C40.7998 48.4307 44.1572 45.8203 45.959 42.1025C46.5478 40.8896 46.8467 40.0371 47.1191 38.7715C47.374 37.585 47.4004 34.9658 47.1631 33.7353C46.7676 31.6172 45.7656 29.4199 44.4209 27.6885C44.2891 27.5215 44.21 27.5918 42.5752 29.2266C41.6348 30.167 40.8613 30.9756 40.8613 31.0107C40.8613 31.0547 40.9756 31.248 41.1162 31.4502C42.0742 32.8564 42.6191 34.8955 42.4961 36.6533C42.3467 38.9297 41.2041 41.2324 39.5078 42.6738C38.3037 43.7021 36.6602 44.4668 35.1484 44.7041C34.2256 44.8447 32.5557 44.7568 31.6768 44.5195C30.2002 44.124 28.8555 43.3418 27.7568 42.2432C26.6494 41.1357 25.8848 39.8086 25.4629 38.2793C25.2871 37.6377 25.2607 37.3301 25.2607 36.126C25.2695 34.6055 25.3398 34.21 25.8496 32.8916C27.0537 29.7539 30.4287 27.4687 33.874 27.4687C35.4385 27.4687 37.3105 28.04 38.5498 28.8838C38.752 29.0244 38.9453 29.1387 38.9893 29.1387C39.0244 29.1387 39.833 28.3652 40.7734 27.4248C42.4082 25.79 42.4785 25.7109 42.3115 25.5791C40.5889 24.2344 38.3564 23.2148 36.3174 22.8457C35.3945 22.6787 33.0742 22.6172 32.1602 22.7314Z" fill="white"/>
<path d="M32.5557 30.1582C30.5166 30.6064 28.7939 32.1357 28.082 34.1396C27.8271 34.8427 27.8096 34.9746 27.8096 36.1259C27.8096 37.5146 27.9502 38.0947 28.5303 39.1582C28.9873 39.9931 30.1738 41.1357 31.0176 41.5576C33.0391 42.5683 35.4297 42.4453 37.2402 41.2324C39.042 40.0371 40.0967 37.9189 39.9561 35.7744C39.8857 34.7461 39.4814 33.4365 39.0771 32.9355C39.0068 32.8476 38.5146 33.2871 36.8887 34.913L35.6978 36.1039C35.2009 36.6008 34.3948 36.5988 33.9004 36.0996C33.4011 35.6052 33.3992 34.799 33.896 34.3022L35.0869 33.1113C36.7129 31.4853 37.1523 30.9931 37.0645 30.9228C36.1943 30.2285 33.9619 29.8418 32.5557 30.1582Z" fill="white"/>
</g>
<defs>
<linearGradient id="paint0_linear_184_49" x1="81.6981" y1="-1.62355e-06" x2="-22.3169" y2="64.5356" gradientUnits="userSpaceOnUse">
<stop stop-color="#9E0606"/>
<stop offset="1" stop-color="#D51717"/>
</linearGradient>
<clipPath id="clip0_184_49">
<rect width="45" height="45" fill="white" transform="translate(13 12)"/>
</clipPath>
</defs>
</svg>
